<?xml version="1.0" standalone="no"?>
<!DOCTYPE svg PUBLIC "-//W3C//DTD SVG 20010904//EN"
 "http://www.w3.org/TR/2001/REC-SVG-20010904/DTD/svg10.dtd">
<svg version="1.0" xmlns="http://www.w3.org/2000/svg"
 width="445.000000pt" height="711.000000pt" viewBox="0 0 445.000000 711.000000"
 preserveAspectRatio="xMidYMid meet">

<g transform="translate(0.000000,711.000000) scale(0.100000,-0.100000)"
fill="#000000" stroke="none">
<path d="M1131 6583 c7 -10 41 -49 74 -88 176 -201 628 -755 713 -874 l32 -44
0 -604 0 -604 -77 -83 c-43 -45 -154 -167 -248 -271 -93 -104 -216 -239 -272
-301 -57 -62 -103 -116 -103 -121 0 -8 513 -521 1123 -1122 152 -151 277 -275
277 -277 0 -1 -15 2 -32 8 -18 5 -100 12 -183 15 -116 4 -170 2 -240 -12 -291
-54 -503 -234 -593 -503 -24 -71 -26 -91 -26 -252 0 -171 1 -177 33 -270 62
-181 137 -285 377 -521 137 -133 335 -307 376 -330 11 -6 -4 32 -42 108 -113
227 -145 360 -137 577 4 116 9 154 29 211 37 104 71 165 138 248 123 154 302
252 527 292 92 17 344 22 427 10 25 -4 46 -5 46 -3 0 3 -198 203 -441 444
-243 242 -460 464 -484 494 -87 113 -80 41 -83 794 l-3 669 38 40 c50 52 851
782 881 803 4 2 -169 131 -608 454 -488 359 -630 464 -1103 818 -229 171 -420
312 -423 312 -4 0 0 -8 7 -17z"/>
</g>
</svg>
