<?xml version="1.0" standalone="no"?>
<!DOCTYPE svg PUBLIC "-//W3C//DTD SVG 20010904//EN"
 "http://www.w3.org/TR/2001/REC-SVG-20010904/DTD/svg10.dtd">
<svg version="1.0" xmlns="http://www.w3.org/2000/svg"
 width="180.000000pt" height="488.000000pt" viewBox="0 0 180.000000 488.000000"
 preserveAspectRatio="xMidYMid meet">

<g transform="translate(0.000000,488.000000) scale(0.100000,-0.100000)"
fill="#000000" stroke="none">
<path d="M344 4595 c-8 -19 24 -66 112 -165 109 -125 201 -247 229 -305 39
-83 48 -185 42 -469 -5 -269 -11 -304 -65 -411 -41 -81 -121 -183 -278 -352
-57 -61 -104 -116 -104 -122 0 -16 81 -112 254 -301 240 -261 322 -354 416
-470 47 -58 135 -165 197 -238 62 -73 113 -135 113 -138 0 -3 -19 6 -43 20
-105 62 -308 74 -430 27 -116 -45 -215 -152 -259 -280 -32 -93 -32 -325 1
-446 29 -111 106 -264 182 -365 71 -95 277 -310 296 -310 7 0 16 8 21 17 8 14
-3 39 -43 106 -57 92 -86 167 -110 282 -52 248 46 486 240 580 112 55 233 65
438 39 44 -6 47 -5 47 17 0 14 -23 51 -55 89 -300 357 -469 574 -533 689 -69
124 -75 160 -80 494 -4 333 3 399 60 511 58 115 100 161 368 398 52 47 96 93
98 104 2 15 -39 59 -160 170 -89 82 -221 203 -293 269 -247 229 -580 531 -609
553 -34 26 -45 27 -52 7z"/>
</g>
</svg>
